# xmcd CD database file
# Copyright (C) 1997 Ti Kan
# 
# Track frame offsets:
#     172
#     9757
#     23382
#     33617
#     43240
#     48795
#     60565
#     73005
#     79737
#     96062
#     123277
#     132275
#     146210
#     172870
#     180012
#     191272
#     199305
#     209420
#     223265
#     236120
#     244050
#     249512
#     254255
#     260420
#     265272
#     271212
#     281060
#     287185
# 
# Disc length: 4237 seconds
# 
# Revision: 1
# Processed by: cddbd v1.4b41PL1 Copyright (c) Steve Scherf et al.
# Submitted via: DiscPlay 4.0.3
# 
DISCID=98108b1c
DTITLE=Various Artist - Been In The Storm So Long  Spirituals, Folk Tales and Child
DTITLE=ren's Games from John's Island, S. Carolina
DYEAR=1900
DGENRE=
TTITLE0=Remember Me
TTITLE1=See God's Ark A-Moving
TTITLE2=Ask The Watchman How Long
TTITLE3=Meet Me In Galilee
TTITLE4=Talking 'bout a Good Time
TTITLE5=That's All Right
TTITLE6=Jesus Knows All About My Trouble
TTITLE7=Esau Jenkins Talking
TTITLE8=Lay Down Body
TTITLE9=Welcom Table and Prayer
TTITLE10=Ezekial in the Valley
TTITLE11=Been In The Storm So Long
TTITLE12=Jack And Mary and the Three Dogs
TTITLE13=You Got to Move
TTITLE14=Moon Ligh in Glory
TTITLE15=Mary Rolled the Stone Away
TTITLE16=Ezekial in the Valley
TTITLE17=Down on Me
TTITLE18=Reborn Again
TTITLE19=Row Michael Row
TTITLE20=Johhny Cuckoo
TTITLE21=Old Lady from Booster
TTITLE22=Shoo Turkey
TTITLE23=Mr. Postman Die
TTITLE24=Water My Flowers
TTITLE25=Rabbit and Partridge
TTITLE26=Improvised blues
TTITLE27=Jack and Mary and the Devil
EXTD=
EXTT0=
EXTT1=
EXTT2=
EXTT3=
EXTT4=
EXTT5=
EXTT6=
EXTT7=
EXTT8=
EXTT9=
EXTT10=
EXTT11=
EXTT12=
EXTT13=
EXTT14=
EXTT15=
EXTT16=
EXTT17=
EXTT18=
EXTT19=
EXTT20=
EXTT21=
EXTT22=
EXTT23=
EXTT24=
EXTT25=
EXTT26=
EXTT27=
PLAYORDER=
